<?xml version="1.0" encoding="UTF-8" standalone="no"?>
<svg
   width="833"
   height="191"
   version="1.1"
   id="svg1"
   xmlns="http://www.w3.org/2000/svg"
   xmlns:svg="http://www.w3.org/2000/svg">
  <defs
     id="defs1" />
  <path
     style="fill:#ffffff;stroke:none;stroke-width:1.10268"
     d="M 2.4925084,66.558978 C 6.8606566,62.237584 9.2905176,56.131836 12.888777,51.121488 18.297963,43.589757 25.09487,36.562391 32.264812,30.682802 68.774477,0.74410487 114.45952,3.0726298 155.76473,20.246507 145.84063,8.2686685 125.41904,3.1202655 110.55494,1.4456286 63.341583,-3.8731382 19.758129,22.056442 2.4925084,66.558978 M 219.72005,0.39830508 V 190.05891 h 6.61607 V 0.39830508 h -6.61607 M 16.827322,149.25983 c -0.906402,-5.2675 -3.304836,-10.12148 -4.079688,-15.43749 -1.409222,-9.66718 -0.331024,-18.9793 -0.331024,-28.66964 2.269642,6.05923 2.811277,12.56833 4.790143,18.74553 3.237131,10.10494 7.930129,19.31451 12.852703,28.66963 1.014905,-4.83414 -2.119567,-9.75429 -3.588003,-14.33481 -2.471432,-7.70993 -3.82122,-15.1927 -1.925386,-23.15624 4.806462,9.11915 7.58907,18.92195 13.470313,27.56695 14.945586,21.96865 40.075725,38.12729 65.92249,44.10711 C 97.322807,181.21212 88.919299,177.78169 81.885317,172.69724 64.84343,160.37813 49.238002,142.6206 44.394269,121.69288 c 5.670962,8.57001 10.728615,17.21059 18.745524,23.89944 29.32241,24.46622 68.776227,22.99194 103.651717,15.79696 -5.89491,-1.8128 -14.62151,0 -20.95088,0 -15.25775,-0.001 -36.33213,-3.79211 -46.312467,-16.54017 14.898277,6.40987 33.274407,7.88746 48.517827,2.20536 v -2.20536 c -6.58189,-2.77764 -12.92559,-1.70143 -19.8482,-2.39391 -8.39028,-0.83803 -16.61846,-3.26723 -24.25892,-6.76824 C 76.156905,122.95765 44.456791,84.262472 73.068305,56.679095 c 3.958613,-3.816699 8.195102,-6.693586 13.227724,-8.865641 -4.535315,-1.337548 -9.24816,1.459394 -13.232135,3.653503 -8.928383,4.917502 -15.884075,12.752139 -20.597803,21.708089 -3.000937,5.701947 -4.210906,12.208849 -9.1745,16.540168 C 43.294458,63.223378 62.917052,44.366373 86.296029,34.58132 80.666858,32.567609 73.8898,36.398974 68.653182,38.555591 49.841056,46.303227 37.664405,63.729507 30.059456,81.996469 25.181319,72.475948 35.064952,60.576951 40.874411,53.326844 57.315007,32.808103 83.695914,17.006839 110.55494,15.835795 98.99557,10.985116 79.826617,17.290779 68.653182,21.29383 41.319231,31.087154 15.067999,48.487852 5.5239904,77.585757 2.6616592,86.31235 2.4919571,94.977193 2.4925084,104.05003 c 8.821e-4,14.14846 2.4126592,35.84806 14.3348136,45.2098 M 88.134193,32.743486 c -0.490692,0.490141 0.673736,0.428832 0.734383,0.367633 0.490692,-0.49014 -0.673736,-0.428831 -0.734383,-0.367633 M 517.44308,48.916132 v 40.799082 c 0,7.886352 -0.94279,16.466286 0.35948,24.258916 2.1833,13.07115 12.65322,23.79359 25.00211,27.84372 7.19718,2.36084 14.58623,1.92859 22.05356,1.92859 v -20.95088 c -2.94084,0.54362 -5.81883,1.16001 -8.82142,0.72776 -17.89205,-2.58026 -16.54017,-18.75655 -16.54017,-32.705428 h 20.95088 v -20.95088 h -20.95088 v -20.95088 h -22.05356 m 60.64729,1.102678 v 93.72763 h 23.15623 v -31.97766 c 12.2276,0 26.42678,1.36511 37.49105,-4.79555 17.84353,-9.934029 21.38975,-36.658531 4.3666,-49.468781 C 626.33473,44.885403 597.82279,50.01881 578.09037,50.01881 m 83.80352,0 c 0,23.0592 0.53149,54.05878 29.7723,58.44193 v 35.2857 h 22.05356 v -22.05356 c 0,-3.29811 -0.70792,-7.68787 0.66491,-10.77868 1.57793,-3.55173 6.13861,-4.15269 9.25919,-5.75708 4.53531,-2.33217 8.43989,-5.911461 11.54614,-9.929619 9.85463,-12.749162 7.19938,-30.120749 7.19938,-45.208691 h -22.05356 c 0,9.452155 2.33878,22.410825 -2.61003,30.858441 -6.76273,11.540627 -25.01205,10.859172 -31.06906,-1.090549 -4.03139,-7.953615 -1.6066,-21.034242 -1.6066,-29.767892 h -23.15623 m 94.83029,0 v 93.72763 h 22.05356 v -31.97766 c 12.53966,0 27.2582,1.482 38.59373,-4.99734 18.64408,-10.658489 19.43029,-38.05011 2.20425,-50.368787 -8.44541,-6.039587 -19.75558,-6.383181 -29.7712,-6.383843 h -33.08034 m -497.30772,93.72763 h 22.05355 c 0,-14.17052 -3.52415,-34.30983 2.83719,-47.410748 5.37887,-11.079707 21.46142,-11.386252 27.78638,-1.062981 3.04009,4.964259 2.45677,10.923129 2.45677,16.496069 v 31.97766 h 22.05356 v -31.97766 c 0,-8.74976 0.31536,-17.306538 -3.72485,-25.3616 -12.26729,-24.45519 -52.05852,-26.076126 -66.88403,-3.308033 -10.73126,16.479521 -6.57857,41.927123 -6.57857,60.647293 m 155.47758,-2.20536 V 120.5902 c -15.63597,1.976 -33.02961,6.47823 -44.10712,-7.71874 14.69208,3.35875 33.23251,5.58065 44.84702,-6.82007 8.68689,-9.276832 6.34811,-24.127698 -3.13712,-31.853059 -6.65136,-5.417457 -17.78399,-7.924946 -26.27241,-7.280982 -11.92436,0.904196 -22.67105,4.688586 -30.64011,13.980853 -12.12725,14.140741 -10.45669,40.130868 3.12058,52.720138 15.87525,14.71854 37.01138,9.44885 56.18916,7.92274 m 14.33481,-73.879424 c 4.74041,9.52824 12.24303,17.830302 18.42575,26.46427 1.98041,2.765516 6.44515,6.901664 6.29408,10.559244 -0.15988,3.88584 -5.23882,8.4818 -7.39676,11.49432 -6.5058,9.08386 -13.99739,17.85897 -19.52842,27.56695 6.76492,0 16.72431,1.8536 23.05699,-0.66492 6.89063,-2.74236 13.58499,-14.96113 16.63941,-21.38864 h 2.20536 c 2.75669,6.55432 9.64953,18.71024 16.58317,21.38864 6.14412,2.37186 15.47718,0.66492 22.01055,0.66492 -3.85386,-10.02004 -12.52532,-18.8591 -18.74552,-27.56695 -2.16676,-3.03347 -7.21152,-7.71544 -7.21703,-11.66193 -0.006,-3.80534 4.95874,-8.599783 7.08912,-11.494312 6.07796,-8.257955 12.77452,-16.39682 17.77075,-25.361592 -6.68553,0 -18.1203,-2.197637 -24.06704,1.133553 -6.40656,3.589217 -10.664,13.30822 -15.62936,18.714649 -2.40163,-5.682099 -8.61302,-16.700056 -14.53771,-19.183287 -6.17168,-2.58578 -16.31301,-0.664915 -22.95334,-0.664915 M 1.3898305,68.764334 2.4925084,69.867012 1.3898305,68.764334 M 601.2466,90.817892 V 70.96969 c 7.29973,0 18.7345,-2.152427 25.34064,1.300057 7.03288,3.675226 6.96231,13.519934 -0.0276,17.248088 -6.52896,3.482256 -18.07069,1.300057 -25.31308,1.300057 m 177.53114,0 V 70.96969 c 7.61399,0 19.52071,-2.235128 26.34408,1.606602 6.014,3.384118 6.0129,13.25088 0,16.634998 -6.82337,3.84173 -18.73009,1.606602 -26.34408,1.606602 m -406.8881,5.513389 c 4.5287,-6.081268 10.19867,-7.898481 17.64285,-7.701102 2.64091,0.07057 6.06142,0.157683 7.66692,2.661864 5.22448,8.149893 -11.80527,7.363683 -15.38567,7.20159 -3.51975,-0.159889 -6.64694,-0.935071 -9.9241,-2.162352 m -265.74537,90.419589 1.10268,1.10268 z"
     id="path1" />
</svg>
