<?xml version="1.0" standalone="yes"?>
<svg xmlns="http://www.w3.org/2000/svg" width="833" height="234">
<path style="fill:#057cff; stroke:none;" d="M48 107C51.9614 103.081 54.165 97.5438 57.4282 93C62.3337 86.1696 68.4977 79.7966 75 74.4645C108.11 47.3136 149.541 49.4253 187 65C178 54.1375 159.48 49.4685 146 47.9498C103.183 43.1263 63.6579 66.6414 48 107M245 47L245 219L251 219L251 47L245 47M61 182C60.178 177.223 58.0029 172.821 57.3002 168C56.0222 159.233 57 150.788 57 142C59.0583 147.495 59.5495 153.398 61.3441 159C64.2798 168.164 68.5358 176.516 73 185C73.9204 180.616 71.0778 176.154 69.7461 172C67.5048 165.008 66.2807 158.222 68 151C72.3589 159.27 74.8824 168.16 80.216 176C93.7699 195.923 116.56 210.577 140 216C134 210.977 126.379 207.866 120 203.255C104.545 192.083 90.3927 175.979 86 157C91.1429 164.772 95.7296 172.608 103 178.674C129.592 200.862 165.372 199.525 197 193C191.654 191.356 183.74 193 178 193C164.163 192.999 145.051 189.561 136 178C149.511 183.813 166.176 185.153 180 180L180 178C174.031 175.481 168.278 176.457 162 175.829C154.391 175.069 146.929 172.866 140 169.691C114.805 158.147 86.0567 123.055 112.004 98.0401C115.594 94.5788 119.436 91.9698 124 90C119.887 88.787 115.613 91.3235 112 93.3133C103.903 97.7729 97.595 104.878 93.3202 113C90.5987 118.171 89.5014 124.072 85 128C85.0026 103.975 102.798 86.8739 124 78C118.895 76.1738 112.749 79.6484 108 81.6042C90.9396 88.6304 79.8968 104.434 73 121C68.5761 112.366 77.5394 101.575 82.8079 95C97.7176 76.3919 121.642 62.062 146 61C135.517 56.601 118.133 62.3195 108 65.9498C83.2113 74.8312 59.4045 90.6116 50.7492 117C48.1534 124.914 47.9995 132.772 48 141C48.0008 153.831 50.188 173.51 61 182M125.667 76.3333C125.222 76.7778 126.278 76.7222 126.333 76.6667C126.778 76.2222 125.722 76.2778 125.667 76.3333M515 91L515 128C515 135.152 514.145 142.933 515.326 150C517.306 161.854 526.801 171.578 538 175.251C544.527 177.392 551.228 177 558 177L558 158C555.333 158.493 552.723 159.052 550 158.66C533.774 156.32 535 141.65 535 129L554 129L554 110L535 110L535 91L515 91M570 92L570 177L591 177L591 148C602.089 148 614.966 149.238 625 143.651C641.182 134.642 644.398 110.406 628.96 98.7886C613.752 87.3446 587.895 92 570 92M646 92C646 112.912 646.482 141.025 673 145L673 177L693 177L693 157C693 154.009 692.358 150.028 693.603 147.225C695.034 144.004 699.17 143.459 702 142.004C706.113 139.889 709.654 136.643 712.471 132.999C721.408 121.437 719 105.683 719 92L699 92C699 100.572 701.121 112.324 696.633 119.985C690.5 130.451 673.95 129.833 668.457 118.996C664.801 111.783 667 99.9204 667 92L646 92M732 92L732 177L752 177L752 148C763.372 148 776.72 149.344 787 143.468C803.908 133.802 804.621 108.961 788.999 97.7894C781.34 92.3122 771.083 92.0006 762 92L732 92M281 177L301 177C301 164.149 297.804 145.885 303.573 134.004C308.451 123.956 323.036 123.678 328.772 133.04C331.529 137.542 331 142.946 331 148L331 177L351 177L351 148C351 140.065 351.286 132.305 347.622 125C336.497 102.822 300.411 101.352 286.966 122C277.234 136.945 281 160.023 281 177M422 175L422 156C407.82 157.792 392.046 161.875 382 149C395.324 152.046 412.138 154.061 422.671 142.815C430.549 134.402 428.428 120.934 419.826 113.928C413.794 109.015 403.698 106.741 396 107.325C385.186 108.145 375.44 111.577 368.213 120.004C357.215 132.828 358.73 156.398 371.043 167.815C385.44 181.163 404.608 176.384 422 175M435 108C439.299 116.641 446.103 124.17 451.71 132C453.506 134.508 457.555 138.259 457.418 141.576C457.273 145.1 452.667 149.268 450.71 152C444.81 160.238 438.016 168.196 433 177C439.135 177 448.167 178.681 453.91 176.397C460.159 173.91 466.23 162.829 469 157L471 157C473.5 162.944 479.751 173.968 486.039 176.397C491.611 178.548 500.075 177 506 177C502.505 167.913 494.641 159.897 489 152C487.035 149.249 482.46 145.003 482.455 141.424C482.45 137.973 486.952 133.625 488.884 131C494.396 123.511 500.469 116.13 505 108C498.937 108 488.567 106.007 483.174 109.028C477.364 112.283 473.503 121.097 469 126C466.822 120.847 461.189 110.855 455.816 108.603C450.219 106.258 441.022 108 435 108M47 109L48 110L47 109M591 129L591 111C597.62 111 607.99 109.048 613.981 112.179C620.359 115.512 620.295 124.44 613.956 127.821C608.035 130.979 597.568 129 591 129M752 129L752 111C758.905 111 769.703 108.973 775.891 112.457C781.345 115.526 781.344 124.474 775.891 127.543C769.703 131.027 758.905 129 752 129M383 134C387.107 128.485 392.249 126.837 399 127.016C401.395 127.08 404.497 127.159 405.953 129.43C410.691 136.821 395.247 136.108 392 135.961C388.808 135.816 385.972 135.113 383 134M142 216L143 217L142 216z"/>
</svg>